# AST/ASF file generated using VICON BodyLanguage
# -----------------------------------------------
:version 1.10
:name VICON
:units
  mass 1.0
  length 0.45
  angle deg
:documentation
   .ast/.asf automatically generated from VICON data using
   VICON BodyBuilder and BodyLanguage model FoxedUp or BRILLIANT.MOD
:root
   order TX TY TZ RX RY RZ
   axis XYZ
   position 0 0 0  
   orientation 0 0 0 
:bonedata
  begin
     id 1 
     name lhipjoint
     direction 0.621036 -0.695554 0.361275 
     length 2.46325 
     axis 0 0 0  XYZ
  end
  begin
     id 2 
     name lfemur
     direction 0.34202 -0.939693 0  
     length 6.54784  
     axis 0 0 20  XYZ
    dof rx ry rz
    limits (-160.0 20.0)
           (-70.0 70.0)
           (-60.0 70.0)
  end
  begin
     id 3 
     name ltibia
     direction 0.34202 -0.939693 0   
     length 7.84737   
     axis 0 0 20   XYZ
    dof rx
    limits (-10.0 170.0)
  end
  begin
     id 4 
     name lfoot
     direction 0.0790693 -0.217241 0.97291   
     length 2.59747   
     axis -90 7.62852e-016 20   XYZ
    dof rx rz
    limits (-45.0 90.0)
           (-70.0 20.0)
  end
  begin
     id 5 
     name ltoes
     direction 1.53572e-011 -4.21898e-011 1   
     length 1.29919   
     axis -90 7.62852e-016 20   XYZ
    dof rx
    limits (-90.0 20.0)
  end
  begin
     id 6 
     name rhipjoint
     direction -0.602353 -0.708375 0.367935   
     length 2.41867  
     axis 0 0 0  XYZ 
  end
  begin
     id 7 
     name rfemur
     direction -0.34202 -0.939693 0   
     length 6.92065   
     axis 0 0 -20   XYZ
    dof rx ry rz
    limits (-160.0 20.0)
           (-70.0 70.0)
           (-70.0 60.0)
  end
  begin
     id 8 
     name rtibia
     direction -0.34202 -0.939693 0   
     length 7.88883   
     axis 0 0 -20   XYZ
    dof rx
    limits (-10.0 170.0)
 end
 begin
     id 9 
     name rfoot
     direction -0.0768692 -0.211196 0.974416   
     length 2.43714  
     axis -90 -7.62852e-016 -20   XYZ
    dof rx rz
    limits (-45.0 90.0)
           (-20.0 70.0)
  end
  begin
     id 10 
     name rtoes
     direction -1.53575e-011 -4.21933e-011 1   
     length 1.22113   
     axis -90 -7.62852e-016 -20   XYZ
    dof rx
    limits (-90.0 20.0)
  end
  begin
     id 11 
     name lowerback
     direction 0.0197937 0.98943 -0.143655   
     length 2.16931   
     axis 0 0 0   XYZ
    dof rx ry rz
    limits (-20.0 45.0)
           (-30.0 30.0)
           (-30.0 30.0)
  end
  begin
     id 12 
     name upperback
     direction -0.00183968 0.999975 0.00684288   
     length 2.17221   
     axis 0 0 0   XYZ
    dof rx ry rz
    limits (-20.0 45.0)
           (-30.0 30.0)
           (-30.0 30.0)
  end
  begin
     id 13 
     name thorax
     direction -0.00950244 0.997208 0.0740685   
     length 2.22549   
     axis 0 0 0   XYZ
    dof rx ry rz
    limits (-20.0 45.0)
           (-30.0 30.0)
           (-30.0 30.0)
  end
  begin
     id 14 
     name lowerneck
     direction 0.0218238 0.996215 0.0841425   
     length 1.77269   
     axis 0 0 0   XYZ
    dof rx ry rz
    limits (-20.0 45.0)
           (-30.0 30.0)
           (-30.0 30.0)
  end
  begin
     id 15 
     name upperneck
     direction -0.00430652 0.994214 -0.107332   
     length 1.76534   
     axis 0 0 0   XYZ
    dof rx ry rz
    limits (-20.0 45.0)
           (-30.0 30.0)
           (-30.0 30.0)
  end
  begin
     id 16
     name head
     direction -0.00328946 0.998959 -0.0454998  
     length 1.82634  
     axis 0 0 0   XYZ
    dof rx ry rz
    limits (-20.0 45.0)
           (-30.0 30.0)
           (-30.0 30.0)
  end
  begin
     id 17 
     name lclavicle
     direction 0.970962 0.239191 0.00450212  
     length 3.84872  
     axis 0 0 0   XYZ
    dof ry rz
    limits (-20.0 10.0)
           (0.0 20.0)
  end
  begin
     id 18 
     name lhumerus
     direction 1 -4.48966e-011 5.74696e-028   
     length 5.22771   
     axis 180 -30 -90   XYZ
    dof rx ry rz
    limits (-60.0 90.0)
           (-90.0 90.0)
           (-90.0 90.0)
  end
  begin
     id 19
     name lradius
     direction 1 -4.4896e-011 4.25109e-027   
     length 3.45251   
     axis 180 -30 -90   XYZ
    dof rx
    limits (-10.0 170.0)
  end
  begin
     id 20
     name lwrist
     direction 1 -4.48971e-011 1.15382e-027   
     length 1.72626   
     axis -5.52449e-016 90 90   XYZ
    dof ry
    limits (-180.0 0.0)
 end
  begin
     id 21 
     name lhand
     direction 1 -4.49034e-011 2.30765e-027   
     length 0.552119   
     axis -1.47248e-015 90 90   XYZ
    dof rx rz
    limits (-90.0 90.0)
           (-45.0 45.0)
  end
  begin
     id 22 
     name lfingers
     direction 1 -4.48951e-011 4.61529e-027   
     length 0.445133   
     axis -2.94495e-015 90 90   XYZ
    dof rx
    limits (0.0 90.0)
  end
  begin
     id 23
     name lthumb
     direction 0.707107 -6.34991e-011 0.707107   
     length 0.639124   
     axis -90 45 2.85299e-015   XYZ
    dof rx rz
    limits (-45.0 45.0)
           (-45.0 45.0)
  end
  begin
     id 24 
     name rclavicle
     direction -0.97424 0.222511 -0.0366699   
     length 3.73439  
     axis 0 0 0   XYZ 
    dof ry rz
    limits (-10.0 20.0)
           (-20.0 0.0)
  end
  begin
     id 25 
     name rhumerus
     direction -1 -4.48956e-011 -4.97258e-028  
     length 5.2398   
     axis 180 30 90   XYZ
    dof rx ry rz
    limits (-90.0 60.0)
           (-90.0 90.0)
           (-90.0 90.0)
  end
  begin
     id 26 
     name rradius
     direction -1 -4.4897e-011 -1.72611e-027   
     length 3.48042   
     axis 180 30 90   XYZ
    dof rx
    limits (-10.0 170.0)
  end
  begin
     id 27 
     name rwrist
     direction -1 -4.48976e-011 1.15382e-027   
     length 1.74021   
     axis -5.52449e-016 -90 -90   XYZ
    dof ry
    limits (-180.0 0.0)
  end
  begin
     id 28
     name rhand
     direction -1 -4.48963e-011 2.30765e-027   
     length 0.618713   
     axis -1.47248e-015 -90 -90   XYZ
    dof rx rz
    limits (-90.0 90.0)
           (-45.0 45.0)
  end
  begin
     id 29
     name rfingers
     direction -1 -4.4888e-011 4.61529e-027   
     length 0.498823   
     axis -2.94495e-015 -90 -90   XYZ
    dof rx
    limits (0.0 90.0)
  end
  begin
     id 30
     name rthumb
     direction -0.707107 -6.34968e-011 0.707107   
     length 0.716213   
     axis -90 -45 -2.85299e-015   XYZ
    dof rx rz
    limits (-45.0 45.0)
           (-45.0 45.0)
  end
:hierarchy
  begin
    root lhipjoint rhipjoint lowerback
    lhipjoint lfemur
    lfemur ltibia
    ltibia lfoot
    lfoot ltoes
    rhipjoint rfemur
    rfemur rtibia
    rtibia rfoot
    rfoot rtoes
    lowerback upperback
    upperback thorax
    thorax lowerneck lclavicle rclavicle
    lowerneck upperneck
    upperneck head
    lclavicle lhumerus
    lhumerus lradius
    lradius lwrist
    lwrist lhand lthumb
    lhand lfingers
    rclavicle rhumerus
    rhumerus rradius
    rradius rwrist
    rwrist rhand rthumb
    rhand rfingers
  end

#!OML:ASF G:\JayActor3\Patient Classification 1\Patient 1\Session 5\male.ASF
:FULLY-SPECIFIED
:DEGREES
70
root -36.7045 18.3217 -5.92368 -68.2452 85.6967 -68.2262
lowerback -0.911644 -0.645459 3.34196
upperback 1.26473 -0.916406 0.137855
thorax 1.75905 -0.41146 -1.75299
lowerneck -7.68848 -0.623924 0.678642
upperneck 9.62886 -1.11935 2.22975
head 4.59205 -0.38873 0.565223
rclavicle 3.72721e-015 -9.93923e-015
rhumerus -32.3447 -7.13373 -86.237
rradius 26.0446
rwrist 2.31736
rhand -20.0315 -8.4009
rfingers 7.12502
rthumb 6.3094 -38.2869
lclavicle 3.72721e-015 -9.93923e-015
lhumerus -28.9032 8.73555 84.1755
lradius 23.5992
lwrist 15.8747
lhand -18.1364 11.1193
lfingers 7.12502
lthumb 8.13871 40.9426
rfemur -8.29296 0.593092 23.9198
rtibia 34.7061
rfoot 3.31348 -14.6245
rtoes 10.7933
lfemur 3.4103 6.26645 -15.8855
ltibia 16.0241
lfoot 13.5063 10.4209
ltoes 2.05423
71
root -36.7041 18.3234 -5.92523 -68.7793 85.7131 -68.7728
lowerback -0.891961 -0.652294 3.35838
upperback 1.27133 -0.925066 0.138564
thorax 1.75409 -0.415528 -1.76144
lowerneck -7.68613 -0.620474 0.674917
upperneck 9.62455 -1.11439 2.23201
head 4.59 -0.386382 0.566961
rclavicle 1.77664e-015 3.97569e-015
rhumerus -32.3693 -7.30266 -86.1471
rradius 25.8998
rwrist 2.44389
rhand -20.0235 -8.35401
rfingers 7.12502
rthumb 6.31715 -38.2398
lclavicle 1.77664e-015 3.97569e-015
lhumerus -28.897 8.88224 84.141
lradius 23.4148
lwrist 15.7394
lhand -18.1384 11.1367
lfingers 7.12502
lthumb 8.13677 40.9601
rfemur -8.2906 0.571467 23.8974
rtibia 34.677
rfoot 3.34222 -14.6188
rtoes 10.8077
lfemur 3.37637 6.2469 -15.8848
ltibia 16.0464
lfoot 13.568 10.3698
ltoes 1.85093
72
root -36.7047 18.3251 -5.9265 -69.5 85.7394 -69.5108
lowerback -0.869402 -0.662352 3.36803
upperback 1.2749 -0.937734 0.138052
thorax 1.74424 -0.421813 -1.76736
lowerneck -7.67783 -0.617848 0.670179
upperneck 9.61617 -1.11062 2.23819
head 4.58529 -0.384532 0.570121
rclavicle -9.69075e-016 -4.77083e-015
rhumerus -32.3889 -7.46935 -86.0574
rradius 25.751
rwrist 2.56248
rhand -20.0133 -8.29958
rfingers 7.12502
rthumb 6.32693 -38.1851
lclavicle -9.69075e-016 -4.77083e-015
lhumerus -28.8885 9.03222 84.1016
lradius 23.2228
lwrist 15.5912
lhand -18.142 11.1548
lfingers 7.12502
lthumb 8.13328 40.9783
rfemur -8.30015 0.53634 23.8687
rtibia 34.6538
rfoot 3.37363 -14.6125
rtoes 10.836
lfemur 3.33663 6.22369 -15.8862
ltibia 16.0518
lfoot 13.6285 10.3536
ltoes 1.84146
73
root -36.7061 18.3272 -5.92748 -70.378 85.7743 -70.4102
lowerback -0.844707 -0.675594 3.36984
upperback 1.27596 -0.954385 0.136593
thorax 1.73047 -0.430295 -1.76989
lowerneck -7.67109 -0.615562 0.661898
upperneck 9.61117 -1.10755 2.25004
head 4.58224 -0.382779 0.575821
rclavicle -1.20886e-014 9.54166e-015
rhumerus -32.4074 -7.62865 -85.9726
rradius 25.6096
rwrist 2.669
rhand -20.0061 -8.27611
rfingers 7.12502
rthumb 6.33397 -38.1614
lclavicle -1.20886e-014 9.54166e-015
lhumerus -28.8785 9.18185 84.0587
lradius 23.0277
lwrist 15.4368
lhand -18.1407 11.1662
lfingers 7.12502
lthumb 8.13456 40.9896
rfemur -8.31927 0.499671 23.8356
rtibia 34.6359
rfoot 3.39848 -14.6153
rtoes 10.8755
lfemur 3.29734 6.19995 -15.8896
ltibia 16.036
lfoot 13.7024 10.3546
ltoes 1.9154
74
root -36.7072 18.3293 -5.92849 -71.1216 85.8073 -71.1725
lowerback -0.826257 -0.684684 3.37018
upperback 1.28064 -0.96578 0.134575
thorax 1.72425 -0.435991 -1.77217
lowerneck -7.66916 -0.613467 0.650141
upperneck 9.61113 -1.10479 2.26492
head 4.58204 -0.381055 0.583171
rclavicle 9.05713e-015 4.77083e-015
rhumerus -32.4249 -7.78138 -85.8916
rradius 25.4768
rwrist 2.77161
rhand -19.9994 -8.27404
rfingers 7.12502
rthumb 6.34039 -38.1591
lclavicle 9.05713e-015 4.77083e-015
lhumerus -28.8673 9.3365 84.0126
lradius 22.8342
lwrist 15.2768
lhand -18.1342 11.1593
lfingers 7.12502
lthumb 8.14083 40.9825
rfemur -8.33846 0.469314 23.7981
rtibia 34.6219
rfoot 3.43518 -14.6154
rtoes 10.8854
lfemur 3.27307 6.18143 -15.8943
ltibia 16.0022
lfoot 13.7674 10.3821
ltoes 2.09239
75
root -36.7079 18.3314 -5.92965 -71.6547 85.838 -71.7182
lowerback -0.813377 -0.68833 3.36945
upperback 1.28903 -0.970171 0.131454
thorax 1.72536 -0.438024 -1.77494
lowerneck -7.67007 -0.611621 0.637522
upperneck 9.61635 -1.10219 2.27789
head 4.58434 -0.379452 0.590043
rclavicle -1.0548e-014 -3.18055e-015
rhumerus -32.4435 -7.92813 -85.8138
rradius 25.3539
rwrist 2.87423
rhand -19.9919 -8.30066
rfingers 7.12502
rthumb 6.34762 -38.1856
lclavicle -1.0548e-014 -3.18055e-015
lhumerus -28.8586 9.49084 83.9646
lradius 22.6454
lwrist 15.1145
lhand -18.1296 11.1563
lfingers 7.12502
lthumb 8.14524 40.9793
rfemur -8.35182 0.454113 23.7552
rtibia 34.6084
rfoot 3.47597 -14.6192
rtoes 10.8843
lfemur 3.26764 6.17033 -15.9018
ltibia 15.9556
lfoot 13.814 10.4357
ltoes 2.3651
76
root -36.7076 18.3333 -5.93109 -71.9121 85.8633 -71.9814
lowerback -0.808684 -0.684233 3.37095
upperback 1.30153 -0.964657 0.127362
thorax 1.73578 -0.43486 -1.7799
lowerneck -7.67111 -0.611658 0.626203
upperneck 9.6253 -1.1018 2.28579
head 4.58799 -0.379106 0.594834
rclavicle 5.61567e-015 9.93923e-015
rhumerus -32.4586 -8.07109 -85.7358
rradius 25.2309
rwrist 2.98115
rhand -19.9842 -8.32441
rfingers 7.12502
rthumb 6.35502 -38.2091
lclavicle 5.61567e-015 9.93923e-015
lhumerus -28.8541 9.64321 83.9153
lradius 22.4643
lwrist 14.9532
lhand -18.1232 11.1453
lfingers 7.12502
lthumb 8.15146 40.9681
rfemur -8.35877 0.442684 23.7056
rtibia 34.5955
rfoot 3.53692 -14.61
rtoes 10.8292
lfemur 3.28303 6.1659 -15.912
ltibia 15.8984
lfoot 13.839 10.5108
ltoes 2.69194
